<mxfile host="app.diagrams.net" agent="Mozilla/5.0 (Windows NT 10.0; Win64; x64) AppleWebKit/537.36 (KHTML, like Gecko) Chrome/135.0.0.0 Safari/537.36" version="26.2.14">
  <diagram name="Page-1" id="W1PAtATe9bJSxaOQtl3E">
    <mxGraphModel dx="2277" dy="899" grid="1" gridSize="10" guides="1" tooltips="1" connect="1" arrows="1" fold="1" page="1" pageScale="1" pageWidth="850" pageHeight="1100" math="0" shadow="0">
      <root>
        <mxCell id="0" />
        <mxCell id="1" parent="0" />
        <mxCell id="pLAygkfzpbYD0ny77yxr-1" value="&lt;span style=&quot;font-size: 14px;&quot;&gt;&lt;b&gt;Μέλος της&amp;nbsp;&lt;/b&gt;&lt;/span&gt;&lt;div&gt;&lt;span style=&quot;font-size: 14px;&quot;&gt;&lt;b&gt;Επιτροπής&amp;nbsp;&lt;/b&gt;&lt;/span&gt;&lt;div&gt;&lt;span style=&quot;font-size: 14px;&quot;&gt;&lt;b&gt;Πρακτικής&lt;/b&gt;&lt;/span&gt;&lt;/div&gt;&lt;/div&gt;" style="shape=umlActor;verticalLabelPosition=bottom;verticalAlign=top;html=1;outlineConnect=0;" vertex="1" parent="1">
          <mxGeometry x="30" y="310" width="50" height="80" as="geometry" />
        </mxCell>
        <mxCell id="pLAygkfzpbYD0ny77yxr-2" value="" style="shape=umlBoundary;whiteSpace=wrap;html=1;" vertex="1" parent="1">
          <mxGeometry x="220" y="170" width="100" height="80" as="geometry" />
        </mxCell>
        <mxCell id="pLAygkfzpbYD0ny77yxr-3" value="Homepage" style="text;html=1;align=center;verticalAlign=middle;resizable=0;points=[];autosize=1;strokeColor=none;fillColor=none;fontSize=14;fontStyle=1" vertex="1" parent="1">
          <mxGeometry x="230" y="140" width="90" height="30" as="geometry" />
        </mxCell>
        <mxCell id="pLAygkfzpbYD0ny77yxr-4" value="" style="endArrow=classic;html=1;rounded=0;strokeColor=#0066CC;" edge="1" parent="1" target="pLAygkfzpbYD0ny77yxr-2" source="pLAygkfzpbYD0ny77yxr-1">
          <mxGeometry width="50" height="50" relative="1" as="geometry">
            <mxPoint x="160" y="398" as="sourcePoint" />
            <mxPoint x="660" y="520" as="targetPoint" />
          </mxGeometry>
        </mxCell>
        <mxCell id="pLAygkfzpbYD0ny77yxr-5" value="Ανάθεση θέση&amp;nbsp;&lt;div&gt;πρακτικής σε&amp;nbsp;&lt;/div&gt;&lt;div&gt;φοιτητή&lt;/div&gt;" style="text;html=1;align=center;verticalAlign=middle;resizable=0;points=[];autosize=1;strokeColor=none;fillColor=none;rotation=-35;fontSize=13;fontStyle=2;fontColor=#0066CC;" vertex="1" parent="1">
          <mxGeometry x="75" y="230" width="110" height="60" as="geometry" />
        </mxCell>
        <mxCell id="pLAygkfzpbYD0ny77yxr-6" value="Εμφάνιση στρατηγικών αναζήτησης θέσης" style="ellipse;shape=umlControl;whiteSpace=wrap;html=1;fontStyle=0" vertex="1" parent="1">
          <mxGeometry x="470" y="250" width="90" height="100" as="geometry" />
        </mxCell>
        <mxCell id="pLAygkfzpbYD0ny77yxr-7" value="" style="endArrow=classic;html=1;rounded=0;" edge="1" parent="1" source="pLAygkfzpbYD0ny77yxr-2" target="pLAygkfzpbYD0ny77yxr-6">
          <mxGeometry width="50" height="50" relative="1" as="geometry">
            <mxPoint x="400" y="490" as="sourcePoint" />
            <mxPoint x="450" y="440" as="targetPoint" />
          </mxGeometry>
        </mxCell>
        <mxCell id="pLAygkfzpbYD0ny77yxr-8" value="" style="shape=umlBoundary;whiteSpace=wrap;html=1;" vertex="1" parent="1">
          <mxGeometry x="250" y="330" width="100" height="80" as="geometry" />
        </mxCell>
        <mxCell id="pLAygkfzpbYD0ny77yxr-9" value="Search Positions" style="text;html=1;align=center;verticalAlign=middle;resizable=0;points=[];autosize=1;strokeColor=none;fillColor=none;fontSize=14;fontStyle=1" vertex="1" parent="1">
          <mxGeometry x="235" y="300" width="130" height="30" as="geometry" />
        </mxCell>
        <mxCell id="pLAygkfzpbYD0ny77yxr-10" value="" style="endArrow=classic;html=1;rounded=0;" edge="1" parent="1" source="pLAygkfzpbYD0ny77yxr-6" target="pLAygkfzpbYD0ny77yxr-8">
          <mxGeometry width="50" height="50" relative="1" as="geometry">
            <mxPoint x="400" y="490" as="sourcePoint" />
            <mxPoint x="450" y="440" as="targetPoint" />
          </mxGeometry>
        </mxCell>
        <mxCell id="pLAygkfzpbYD0ny77yxr-11" value="" style="endArrow=classic;html=1;rounded=0;" edge="1" parent="1" source="pLAygkfzpbYD0ny77yxr-1" target="pLAygkfzpbYD0ny77yxr-8">
          <mxGeometry width="50" height="50" relative="1" as="geometry">
            <mxPoint x="400" y="490" as="sourcePoint" />
            <mxPoint x="450" y="440" as="targetPoint" />
          </mxGeometry>
        </mxCell>
        <mxCell id="pLAygkfzpbYD0ny77yxr-12" value="Επιλογή στρατηγικής&amp;nbsp;&lt;div&gt;αναζήτησης&lt;/div&gt;" style="text;html=1;align=center;verticalAlign=middle;resizable=0;points=[];autosize=1;strokeColor=none;fillColor=none;fontSize=13;fontStyle=2" vertex="1" parent="1">
          <mxGeometry x="100" y="320" width="150" height="40" as="geometry" />
        </mxCell>
        <mxCell id="pLAygkfzpbYD0ny77yxr-13" value="Αναζήτηση με βάση την στρατηγική" style="ellipse;shape=umlControl;whiteSpace=wrap;html=1;fontStyle=0" vertex="1" parent="1">
          <mxGeometry x="425" y="430" width="90" height="100" as="geometry" />
        </mxCell>
        <mxCell id="pLAygkfzpbYD0ny77yxr-14" value="" style="endArrow=classic;html=1;rounded=0;" edge="1" parent="1" source="pLAygkfzpbYD0ny77yxr-8" target="pLAygkfzpbYD0ny77yxr-13">
          <mxGeometry width="50" height="50" relative="1" as="geometry">
            <mxPoint x="400" y="490" as="sourcePoint" />
            <mxPoint x="450" y="440" as="targetPoint" />
          </mxGeometry>
        </mxCell>
        <mxCell id="pLAygkfzpbYD0ny77yxr-15" value="" style="ellipse;shape=umlEntity;whiteSpace=wrap;html=1;" vertex="1" parent="1">
          <mxGeometry x="610" y="460" width="80" height="80" as="geometry" />
        </mxCell>
        <mxCell id="pLAygkfzpbYD0ny77yxr-16" value="Στρατηγική" style="text;html=1;align=center;verticalAlign=middle;resizable=0;points=[];autosize=1;strokeColor=none;fillColor=none;fontSize=14;fontStyle=1" vertex="1" parent="1">
          <mxGeometry x="605" y="430" width="90" height="30" as="geometry" />
        </mxCell>
        <mxCell id="pLAygkfzpbYD0ny77yxr-17" value="" style="ellipse;shape=umlEntity;whiteSpace=wrap;html=1;" vertex="1" parent="1">
          <mxGeometry x="610" y="310" width="80" height="80" as="geometry" />
        </mxCell>
        <mxCell id="pLAygkfzpbYD0ny77yxr-18" value="Βάση&amp;nbsp;&lt;div&gt;Δεδομένων&lt;/div&gt;" style="text;html=1;align=center;verticalAlign=middle;resizable=0;points=[];autosize=1;strokeColor=none;fillColor=none;fontSize=14;fontStyle=1" vertex="1" parent="1">
          <mxGeometry x="605" y="260" width="90" height="50" as="geometry" />
        </mxCell>
        <mxCell id="pLAygkfzpbYD0ny77yxr-19" value="" style="endArrow=classic;html=1;rounded=0;" edge="1" parent="1" source="pLAygkfzpbYD0ny77yxr-13" target="pLAygkfzpbYD0ny77yxr-17">
          <mxGeometry width="50" height="50" relative="1" as="geometry">
            <mxPoint x="400" y="490" as="sourcePoint" />
            <mxPoint x="450" y="440" as="targetPoint" />
          </mxGeometry>
        </mxCell>
        <mxCell id="pLAygkfzpbYD0ny77yxr-20" value="" style="endArrow=classic;html=1;rounded=0;" edge="1" parent="1" source="pLAygkfzpbYD0ny77yxr-13" target="pLAygkfzpbYD0ny77yxr-15">
          <mxGeometry width="50" height="50" relative="1" as="geometry">
            <mxPoint x="400" y="490" as="sourcePoint" />
            <mxPoint x="450" y="440" as="targetPoint" />
          </mxGeometry>
        </mxCell>
        <mxCell id="pLAygkfzpbYD0ny77yxr-21" value="Εμφάνιση αποτελεσμάτων με βάση την στρατηγική" style="ellipse;shape=umlControl;whiteSpace=wrap;html=1;fontStyle=0" vertex="1" parent="1">
          <mxGeometry x="425" y="580" width="90" height="100" as="geometry" />
        </mxCell>
        <mxCell id="pLAygkfzpbYD0ny77yxr-22" value="" style="endArrow=classic;html=1;rounded=0;" edge="1" parent="1" source="pLAygkfzpbYD0ny77yxr-13" target="pLAygkfzpbYD0ny77yxr-21">
          <mxGeometry width="50" height="50" relative="1" as="geometry">
            <mxPoint x="400" y="490" as="sourcePoint" />
            <mxPoint x="450" y="440" as="targetPoint" />
          </mxGeometry>
        </mxCell>
        <mxCell id="pLAygkfzpbYD0ny77yxr-23" value="" style="shape=umlBoundary;whiteSpace=wrap;html=1;" vertex="1" parent="1">
          <mxGeometry x="200" y="500" width="100" height="80" as="geometry" />
        </mxCell>
        <mxCell id="pLAygkfzpbYD0ny77yxr-24" value="Find Matches" style="text;html=1;align=center;verticalAlign=middle;resizable=0;points=[];autosize=1;strokeColor=none;fillColor=none;fontSize=14;fontStyle=1" vertex="1" parent="1">
          <mxGeometry x="210" y="470" width="110" height="30" as="geometry" />
        </mxCell>
        <mxCell id="pLAygkfzpbYD0ny77yxr-25" value="" style="endArrow=classic;html=1;rounded=0;" edge="1" parent="1" source="pLAygkfzpbYD0ny77yxr-21" target="pLAygkfzpbYD0ny77yxr-23">
          <mxGeometry width="50" height="50" relative="1" as="geometry">
            <mxPoint x="400" y="490" as="sourcePoint" />
            <mxPoint x="450" y="440" as="targetPoint" />
          </mxGeometry>
        </mxCell>
        <mxCell id="pLAygkfzpbYD0ny77yxr-26" value="" style="endArrow=classic;html=1;rounded=0;" edge="1" parent="1" source="pLAygkfzpbYD0ny77yxr-1" target="pLAygkfzpbYD0ny77yxr-23">
          <mxGeometry width="50" height="50" relative="1" as="geometry">
            <mxPoint x="400" y="490" as="sourcePoint" />
            <mxPoint x="450" y="440" as="targetPoint" />
          </mxGeometry>
        </mxCell>
        <mxCell id="pLAygkfzpbYD0ny77yxr-27" value="Επιλογή θέσης&amp;nbsp;&lt;div&gt;για ανάθεση&amp;nbsp;&lt;/div&gt;&lt;div&gt;πρακτικής άσκησης&lt;/div&gt;" style="text;html=1;align=center;verticalAlign=middle;resizable=0;points=[];autosize=1;strokeColor=none;fillColor=none;rotation=45;fontSize=13;fontStyle=2" vertex="1" parent="1">
          <mxGeometry x="105" y="390" width="140" height="60" as="geometry" />
        </mxCell>
        <mxCell id="pLAygkfzpbYD0ny77yxr-28" value="καταχώρηση ανάθεσης πρακτικής άσκησης" style="ellipse;shape=umlControl;whiteSpace=wrap;html=1;fontStyle=0" vertex="1" parent="1">
          <mxGeometry x="200" y="670" width="90" height="100" as="geometry" />
        </mxCell>
        <mxCell id="pLAygkfzpbYD0ny77yxr-29" value="" style="endArrow=classic;html=1;rounded=0;" edge="1" parent="1" source="pLAygkfzpbYD0ny77yxr-23" target="pLAygkfzpbYD0ny77yxr-28">
          <mxGeometry width="50" height="50" relative="1" as="geometry">
            <mxPoint x="400" y="490" as="sourcePoint" />
            <mxPoint x="450" y="440" as="targetPoint" />
          </mxGeometry>
        </mxCell>
        <mxCell id="pLAygkfzpbYD0ny77yxr-32" value="" style="ellipse;shape=umlEntity;whiteSpace=wrap;html=1;" vertex="1" parent="1">
          <mxGeometry x="345" y="780" width="80" height="80" as="geometry" />
        </mxCell>
        <mxCell id="pLAygkfzpbYD0ny77yxr-33" value="Θέση Πρακτικής&amp;nbsp;&lt;div&gt;Άσκησης&lt;/div&gt;" style="text;html=1;align=center;verticalAlign=middle;resizable=0;points=[];autosize=1;strokeColor=none;fillColor=none;fontSize=14;fontStyle=1" vertex="1" parent="1">
          <mxGeometry x="320" y="735" width="130" height="50" as="geometry" />
        </mxCell>
        <mxCell id="pLAygkfzpbYD0ny77yxr-34" value="" style="endArrow=classic;html=1;rounded=0;" edge="1" parent="1" source="pLAygkfzpbYD0ny77yxr-28" target="pLAygkfzpbYD0ny77yxr-32">
          <mxGeometry width="50" height="50" relative="1" as="geometry">
            <mxPoint x="400" y="490" as="sourcePoint" />
            <mxPoint x="450" y="440" as="targetPoint" />
          </mxGeometry>
        </mxCell>
        <mxCell id="pLAygkfzpbYD0ny77yxr-35" value="" style="endArrow=classic;html=1;rounded=0;" edge="1" parent="1" source="pLAygkfzpbYD0ny77yxr-28" target="pLAygkfzpbYD0ny77yxr-17">
          <mxGeometry width="50" height="50" relative="1" as="geometry">
            <mxPoint x="400" y="490" as="sourcePoint" />
            <mxPoint x="790" y="180" as="targetPoint" />
            <Array as="points">
              <mxPoint x="790" y="720" />
              <mxPoint x="790" y="350" />
            </Array>
          </mxGeometry>
        </mxCell>
        <mxCell id="pLAygkfzpbYD0ny77yxr-36" value="Εμφάνιση μηνύματος επιτυχίας" style="ellipse;shape=umlControl;whiteSpace=wrap;html=1;fontStyle=0" vertex="1" parent="1">
          <mxGeometry x="30" y="580" width="90" height="100" as="geometry" />
        </mxCell>
        <mxCell id="pLAygkfzpbYD0ny77yxr-37" value="" style="endArrow=classic;html=1;rounded=0;" edge="1" parent="1" source="pLAygkfzpbYD0ny77yxr-28" target="pLAygkfzpbYD0ny77yxr-36">
          <mxGeometry width="50" height="50" relative="1" as="geometry">
            <mxPoint x="400" y="490" as="sourcePoint" />
            <mxPoint x="450" y="440" as="targetPoint" />
          </mxGeometry>
        </mxCell>
        <mxCell id="pLAygkfzpbYD0ny77yxr-38" value="" style="endArrow=classic;html=1;rounded=0;" edge="1" parent="1" source="pLAygkfzpbYD0ny77yxr-36" target="pLAygkfzpbYD0ny77yxr-2">
          <mxGeometry width="50" height="50" relative="1" as="geometry">
            <mxPoint x="400" y="490" as="sourcePoint" />
            <mxPoint x="-140" y="230" as="targetPoint" />
            <Array as="points">
              <mxPoint x="-20" y="630" />
              <mxPoint x="-20" y="500" />
              <mxPoint x="-20" y="210" />
            </Array>
          </mxGeometry>
        </mxCell>
        <mxCell id="pLAygkfzpbYD0ny77yxr-39" value="Εμφάνιση μηνύματος αποτυχίας" style="ellipse;shape=umlControl;whiteSpace=wrap;html=1;fontStyle=0;fontColor=light-dark(#FF3333,#ED0202);strokeColor=light-dark(#FF3333,#ED0202);" vertex="1" parent="1">
          <mxGeometry x="660" y="605" width="90" height="100" as="geometry" />
        </mxCell>
        <mxCell id="pLAygkfzpbYD0ny77yxr-40" value="Βρέθηκαν&amp;nbsp;&lt;div&gt;Αποτελέσματα&lt;/div&gt;" style="text;html=1;align=center;verticalAlign=middle;resizable=0;points=[];autosize=1;strokeColor=none;fillColor=none;fontSize=13;fontStyle=2" vertex="1" parent="1">
          <mxGeometry x="460" y="530" width="110" height="40" as="geometry" />
        </mxCell>
        <mxCell id="pLAygkfzpbYD0ny77yxr-41" value="" style="endArrow=classic;html=1;rounded=0;strokeColor=light-dark(#FF3333,#ED0202);" edge="1" parent="1" source="pLAygkfzpbYD0ny77yxr-13" target="pLAygkfzpbYD0ny77yxr-39">
          <mxGeometry width="50" height="50" relative="1" as="geometry">
            <mxPoint x="240" y="540" as="sourcePoint" />
            <mxPoint x="290" y="490" as="targetPoint" />
          </mxGeometry>
        </mxCell>
        <mxCell id="pLAygkfzpbYD0ny77yxr-42" value="" style="endArrow=classic;html=1;rounded=0;strokeColor=light-dark(#FF3333,#ED0202);" edge="1" parent="1" source="pLAygkfzpbYD0ny77yxr-39" target="pLAygkfzpbYD0ny77yxr-43">
          <mxGeometry width="50" height="50" relative="1" as="geometry">
            <mxPoint x="240" y="540" as="sourcePoint" />
            <mxPoint x="290" y="490" as="targetPoint" />
            <Array as="points">
              <mxPoint x="600" y="880" />
              <mxPoint x="120" y="880" />
            </Array>
          </mxGeometry>
        </mxCell>
        <mxCell id="pLAygkfzpbYD0ny77yxr-43" value="" style="shape=umlBoundary;whiteSpace=wrap;html=1;strokeColor=light-dark(#FF3333,#ED0202);" vertex="1" parent="1">
          <mxGeometry x="-230" y="650" width="100" height="80" as="geometry" />
        </mxCell>
        <mxCell id="pLAygkfzpbYD0ny77yxr-45" value="Find&amp;nbsp;&lt;div&gt;Matches&lt;/div&gt;" style="text;html=1;align=center;verticalAlign=middle;resizable=0;points=[];autosize=1;strokeColor=none;fillColor=none;fontSize=14;fontStyle=1;fontColor=light-dark(#FF3333,#ED0202);" vertex="1" parent="1">
          <mxGeometry x="-230" y="605" width="80" height="50" as="geometry" />
        </mxCell>
        <mxCell id="pLAygkfzpbYD0ny77yxr-46" value="" style="endArrow=classic;html=1;rounded=0;strokeColor=light-dark(#FF3333,#ED0202);" edge="1" parent="1" source="pLAygkfzpbYD0ny77yxr-1" target="pLAygkfzpbYD0ny77yxr-43">
          <mxGeometry width="50" height="50" relative="1" as="geometry">
            <mxPoint x="517" y="518" as="sourcePoint" />
            <mxPoint x="678" y="637" as="targetPoint" />
          </mxGeometry>
        </mxCell>
        <mxCell id="pLAygkfzpbYD0ny77yxr-47" value="Δεν βρέθηκαν&amp;nbsp;&lt;div&gt;Αποτελέσματα&lt;/div&gt;" style="text;html=1;align=center;verticalAlign=middle;resizable=0;points=[];autosize=1;strokeColor=none;fillColor=none;fontSize=13;fontStyle=2;fontColor=light-dark(#FF3333,#ED0202);rotation=35;" vertex="1" parent="1">
          <mxGeometry x="585" y="565" width="110" height="40" as="geometry" />
        </mxCell>
        <mxCell id="pLAygkfzpbYD0ny77yxr-48" value="" style="shape=umlBoundary;whiteSpace=wrap;html=1;strokeColor=light-dark(#FF3333,#ED0202);" vertex="1" parent="1">
          <mxGeometry x="-280" y="420" width="100" height="80" as="geometry" />
        </mxCell>
        <mxCell id="pLAygkfzpbYD0ny77yxr-49" value="" style="endArrow=classic;html=1;rounded=0;strokeColor=light-dark(#FF3333,#ED0202);" edge="1" parent="1" target="pLAygkfzpbYD0ny77yxr-48" source="pLAygkfzpbYD0ny77yxr-1">
          <mxGeometry width="50" height="50" relative="1" as="geometry">
            <mxPoint x="-10" y="392.5" as="sourcePoint" />
            <mxPoint x="90" y="442.5" as="targetPoint" />
          </mxGeometry>
        </mxCell>
        <mxCell id="pLAygkfzpbYD0ny77yxr-50" value="Επιλογή προβολής&amp;nbsp;&lt;div&gt;πληροφοριών Εταιρείας&lt;/div&gt;" style="text;html=1;align=center;verticalAlign=middle;resizable=0;points=[];autosize=1;strokeColor=none;fillColor=none;fontSize=13;fontStyle=2;fontColor=light-dark(#FF3333,#ED0202);rotation=-15;" vertex="1" parent="1">
          <mxGeometry x="-180" y="370" width="160" height="40" as="geometry" />
        </mxCell>
        <mxCell id="pLAygkfzpbYD0ny77yxr-51" value="Εμφάνιση παραθύρου πληροφοριών Εταιρείας" style="ellipse;shape=umlControl;whiteSpace=wrap;html=1;fontStyle=0;fontColor=light-dark(#FF3333,#ED0202);strokeColor=light-dark(#FF3333,#ED0202);" vertex="1" parent="1">
          <mxGeometry x="-280" y="210" width="110" height="110" as="geometry" />
        </mxCell>
        <mxCell id="pLAygkfzpbYD0ny77yxr-52" value="" style="endArrow=classic;html=1;rounded=0;strokeColor=light-dark(#FF3333,#ED0202);" edge="1" parent="1" source="pLAygkfzpbYD0ny77yxr-48" target="pLAygkfzpbYD0ny77yxr-51">
          <mxGeometry width="50" height="50" relative="1" as="geometry">
            <mxPoint x="40" y="492.5" as="sourcePoint" />
            <mxPoint x="90" y="442.5" as="targetPoint" />
          </mxGeometry>
        </mxCell>
        <mxCell id="pLAygkfzpbYD0ny77yxr-54" value="Find&amp;nbsp;&lt;div&gt;Matches&lt;/div&gt;" style="text;html=1;align=center;verticalAlign=middle;resizable=0;points=[];autosize=1;strokeColor=none;fillColor=none;fontSize=14;fontStyle=1;fontColor=light-dark(#FF3333,#ED0202);" vertex="1" parent="1">
          <mxGeometry x="-260" y="500" width="80" height="50" as="geometry" />
        </mxCell>
        <mxCell id="pLAygkfzpbYD0ny77yxr-55" value="" style="shape=umlBoundary;whiteSpace=wrap;html=1;strokeColor=light-dark(#FF3333,#ED0202);" vertex="1" parent="1">
          <mxGeometry x="-160" y="100" width="100" height="80" as="geometry" />
        </mxCell>
        <mxCell id="pLAygkfzpbYD0ny77yxr-56" value="" style="endArrow=classic;html=1;rounded=0;strokeColor=light-dark(#FF3333,#ED0202);" edge="1" parent="1" source="pLAygkfzpbYD0ny77yxr-51" target="pLAygkfzpbYD0ny77yxr-55">
          <mxGeometry width="50" height="50" relative="1" as="geometry">
            <mxPoint x="-237" y="320" as="sourcePoint" />
            <mxPoint x="-229" y="220" as="targetPoint" />
          </mxGeometry>
        </mxCell>
        <mxCell id="pLAygkfzpbYD0ny77yxr-57" value="Company Details" style="text;html=1;align=center;verticalAlign=middle;resizable=0;points=[];autosize=1;strokeColor=none;fillColor=none;fontSize=14;fontStyle=1;fontColor=light-dark(#FF3333,#ED0202);" vertex="1" parent="1">
          <mxGeometry x="-165" y="70" width="130" height="30" as="geometry" />
        </mxCell>
        <mxCell id="pLAygkfzpbYD0ny77yxr-58" value="" style="endArrow=classic;html=1;rounded=0;strokeColor=light-dark(#FF3333,#ED0202);" edge="1" parent="1" source="pLAygkfzpbYD0ny77yxr-1" target="pLAygkfzpbYD0ny77yxr-55">
          <mxGeometry width="50" height="50" relative="1" as="geometry">
            <mxPoint x="-237" y="320" as="sourcePoint" />
            <mxPoint x="-229" y="220" as="targetPoint" />
          </mxGeometry>
        </mxCell>
        <mxCell id="pLAygkfzpbYD0ny77yxr-59" value="Επιλογή&amp;nbsp;&lt;div&gt;επιστροφής&lt;/div&gt;" style="text;html=1;align=center;verticalAlign=middle;resizable=0;points=[];autosize=1;strokeColor=none;fillColor=none;fontSize=13;fontStyle=2;fontColor=light-dark(#FF3333,#ED0202);" vertex="1" parent="1">
          <mxGeometry x="-110" y="220" width="90" height="40" as="geometry" />
        </mxCell>
        <mxCell id="pLAygkfzpbYD0ny77yxr-61" value="" style="endArrow=classic;html=1;rounded=0;strokeColor=light-dark(#FF3333,#ED0202);" edge="1" parent="1" source="pLAygkfzpbYD0ny77yxr-55" target="pLAygkfzpbYD0ny77yxr-23">
          <mxGeometry width="50" height="50" relative="1" as="geometry">
            <mxPoint x="-178" y="234" as="sourcePoint" />
            <mxPoint x="400" y="550" as="targetPoint" />
            <Array as="points">
              <mxPoint x="400" y="140" />
              <mxPoint x="400" y="540" />
            </Array>
          </mxGeometry>
        </mxCell>
      </root>
    </mxGraphModel>
  </diagram>
</mxfile>
